<?xml version="1.0" encoding="UTF-8"?>
<svg width="1237px" height="382px" viewBox="0 0 1237 382" version="1.1" xmlns="http://www.w3.org/2000/svg" xmlns:xlink="http://www.w3.org/1999/xlink">
    <g id="Logo-Allein" stroke="none" stroke-width="1" fill="none" fill-rule="evenodd">
        <g id="Group" transform="translate(18.000000, 16.000000)">
            <g id="LOGO-Copy-2" stroke="#39D2DC" stroke-width="36">
                <g id="LOGO">
                    <path d="M139.82159,204.3116 C104.450807,266.260279 5.22281341,276.595952 0.227189183,204.3116 C-4.76843504,132.027248 73.6440708,36.4432831 134.6357,0" id="Path"></path>
                    <path d="M236.409213,299.948871 C201.03843,361.89755 101.810437,372.233223 96.8148124,299.948871 C91.8191881,227.664518 170.231694,132.080554 231.223324,95.6372706" id="Path-Copy" transform="translate(166.498418, 222.998959) scale(-1, -1) translate(-166.498418, -222.998959) "></path>
                </g>
            </g>
            <path d="M358.68457,185.416992 C365.452148,185.416992 371.575195,184.42334 377.053711,182.436035 C382.532227,180.44873 387.097656,177.790039 390.75,174.459961 L390.75,174.459961 L390.75,152.707031 C386.775391,155.929688 382.344238,158.64209 377.456543,160.844238 C372.568848,163.046387 366.526367,164.147461 359.329102,164.147461 C352.883789,164.147461 347.029297,162.616699 341.765625,159.555176 C336.501953,156.493652 332.3125,152.304199 329.197266,146.986816 C326.082031,141.669434 324.524414,135.680664 324.524414,129.020508 C324.524414,122.25293 326.082031,116.237305 329.197266,110.973633 C332.3125,105.709961 336.501953,101.520508 341.765625,98.4052734 C347.029297,95.2900391 352.883789,93.7324219 359.329102,93.7324219 C364.055664,93.7324219 368.164551,94.3232422 371.655762,95.5048828 C375.146973,96.6865234 378.289062,98.1904297 381.082031,100.016602 C383.875,101.842773 386.560547,103.722656 389.138672,105.65625 L389.138672,105.65625 L389.138672,83.0976562 C385.486328,79.875 381.189453,77.3237305 376.248047,75.4438477 C371.306641,73.5639648 365.452148,72.6240234 358.68457,72.6240234 C350.950195,72.6240234 343.645508,73.9936523 336.770508,76.7329102 C329.895508,79.472168 323.826172,83.3393555 318.5625,88.3344727 C313.298828,93.3295898 309.163086,99.2646484 306.155273,106.139648 C303.147461,113.014648 301.643555,120.641602 301.643555,129.020508 C301.643555,137.399414 303.147461,145.026367 306.155273,151.901367 C309.163086,158.776367 313.298828,164.711426 318.5625,169.706543 C323.826172,174.70166 329.895508,178.568848 336.770508,181.308105 C343.645508,184.047363 350.950195,185.416992 358.68457,185.416992 Z M441.345703,185.416992 C447.361328,185.416992 452.625,183.83252 457.136719,180.663574 C461.648438,177.494629 465.085938,173.708008 467.449219,169.303711 L467.449219,169.303711 L467.449219,183 L487.913086,183 L487.913086,101.62793 L467.449219,101.62793 L467.449219,110.8125 C464.441406,107.375 460.681641,104.635742 456.169922,102.594727 C451.658203,100.553711 447.200195,99.5332031 442.795898,99.5332031 C435.813477,99.5332031 429.44873,101.278809 423.70166,104.77002 C417.95459,108.26123 413.38916,113.229492 410.005371,119.674805 C406.621582,126.120117 404.929688,133.854492 404.929688,142.87793 C404.929688,151.901367 406.594727,159.582031 409.924805,165.919922 C413.254883,172.257812 417.686035,177.091797 423.218262,180.421875 C428.750488,183.751953 434.792969,185.416992 441.345703,185.416992 Z M446.501953,164.953125 C440.378906,164.953125 435.464355,162.804688 431.758301,158.507812 C428.052246,154.210938 426.199219,149.000977 426.199219,142.87793 C426.199219,138.795898 427.058594,134.982422 428.777344,131.4375 C430.496094,127.892578 432.88623,125.019043 435.947754,122.816895 C439.009277,120.614746 442.688477,119.513672 446.985352,119.513672 C450.959961,119.513672 454.63916,120.426758 458.022949,122.25293 C461.406738,124.079102 464.548828,126.549805 467.449219,129.665039 L467.449219,129.665039 L467.449219,141.266602 C467.449219,146.208008 466.455566,150.424316 464.468262,153.915527 C462.480957,157.406738 459.902832,160.119141 456.733887,162.052734 C453.564941,163.986328 450.154297,164.953125 446.501953,164.953125 Z M533.513672,183 L533.513672,137.560547 C535.876953,133.048828 538.616211,129.262207 541.731445,126.200684 C544.84668,123.13916 548.767578,121.608398 553.494141,121.608398 C557.253906,121.608398 560.852539,122.575195 564.290039,124.508789 L564.290039,124.508789 L564.290039,101.466797 C561.926758,100.5 559.294922,100.016602 556.394531,100.016602 C551.560547,100.016602 547.236816,101.62793 543.42334,104.850586 C539.609863,108.073242 536.306641,112.101562 533.513672,116.935547 L533.513672,116.935547 L533.513672,101.62793 L513.049805,101.62793 L513.049805,183 L533.513672,183 Z M600.544922,221.671875 L600.544922,173.81543 C603.552734,177.145508 607.285645,179.911621 611.743652,182.11377 C616.20166,184.315918 620.686523,185.416992 625.198242,185.416992 C632.180664,185.416992 638.54541,183.671387 644.29248,180.180176 C650.039551,176.688965 654.60498,171.666992 657.98877,165.114258 C661.372559,158.561523 663.064453,150.773438 663.064453,141.75 C663.064453,132.726562 661.372559,125.072754 657.98877,118.788574 C654.60498,112.504395 650.146973,107.724121 644.614746,104.447754 C639.08252,101.171387 633.09375,99.5332031 626.648438,99.5332031 C620.632812,99.5332031 615.369141,101.063965 610.857422,104.125488 C606.345703,107.187012 602.908203,110.919922 600.544922,115.324219 L600.544922,115.324219 L600.544922,101.62793 L580.081055,101.62793 L580.081055,221.671875 L600.544922,221.671875 Z M621.008789,165.436523 C617.03418,165.436523 613.35498,164.442871 609.971191,162.455566 C606.587402,160.468262 603.445312,157.970703 600.544922,154.962891 L600.544922,154.962891 L600.544922,143.200195 C600.4375,138.366211 601.377441,134.230469 603.364746,130.792969 C605.352051,127.355469 607.957031,124.696777 611.179688,122.816895 C614.402344,120.937012 617.839844,119.99707 621.492188,119.99707 C627.615234,119.99707 632.529785,122.091797 636.23584,126.28125 C639.941895,130.470703 641.794922,135.626953 641.794922,141.75 C641.794922,145.832031 640.935547,149.672363 639.216797,153.270996 C637.498047,156.869629 635.081055,159.796875 631.96582,162.052734 C628.850586,164.308594 625.198242,165.436523 621.008789,165.436523 Z M720.588867,185.416992 C726.711914,185.416992 732.324707,184.262207 737.427246,181.952637 C742.529785,179.643066 746.370117,177.360352 748.948242,175.104492 L748.948242,175.104492 L749.109375,156.09082 C746.208984,158.561523 742.341797,160.978516 737.507812,163.341797 C732.673828,165.705078 727.302734,166.886719 721.394531,166.886719 C715.164062,166.886719 709.900391,165.22168 705.603516,161.891602 C701.306641,158.561523 698.621094,154.157227 697.546875,148.678711 L697.546875,148.678711 L756.521484,148.678711 L756.521484,139.977539 C756.521484,132.02832 754.990723,125.019043 751.929199,118.949707 C748.867676,112.880371 744.463379,108.126953 738.716309,104.689453 C732.969238,101.251953 726.121094,99.5332031 718.171875,99.5332031 C710.222656,99.5332031 703.132812,101.547363 696.902344,105.575684 C690.671875,109.604004 685.78418,114.894531 682.239258,121.447266 C678.694336,128 676.921875,135.250977 676.921875,143.200195 C676.921875,151.364258 678.882324,158.615234 682.803223,164.953125 C686.724121,171.291016 691.987793,176.286133 698.594238,179.938477 C705.200684,183.59082 712.532227,185.416992 720.588867,185.416992 Z M736.863281,134.660156 L697.869141,134.660156 C699.158203,129.396484 701.521484,125.207031 704.958984,122.091797 C708.396484,118.976562 712.639648,117.418945 717.688477,117.418945 C722.307617,117.418945 726.550781,118.842285 730.417969,121.688965 C734.285156,124.535645 736.433594,128.859375 736.863281,134.660156 L736.863281,134.660156 Z M870.120117,184.933594 C881.72168,184.933594 891.711914,182.40918 900.09082,177.360352 C908.469727,172.311523 914.915039,165.463379 919.426758,156.815918 C923.938477,148.168457 926.194336,138.527344 926.194336,127.892578 C926.194336,116.720703 923.804199,106.999023 919.023926,98.7275391 C914.243652,90.4560547 907.556641,84.0107422 898.962891,79.3916016 C890.369141,74.7724609 880.378906,72.4628906 868.992188,72.4628906 C861.6875,72.4628906 854.543945,72.8925781 847.561523,73.7519531 C840.579102,74.6113281 833.757812,75.578125 827.097656,76.6523438 L827.097656,76.6523438 L827.097656,180.744141 C833.650391,182.033203 840.605957,183.053711 847.964355,183.805664 C855.322754,184.557617 862.708008,184.933594 870.120117,184.933594 Z M869.475586,163.986328 C866.360352,163.986328 863.057129,163.852051 859.565918,163.583496 C856.074707,163.314941 852.717773,162.858398 849.495117,162.213867 L849.495117,162.213867 L849.495117,95.1826172 C852.50293,94.6455078 855.779297,94.2158203 859.324219,93.8935547 C862.869141,93.5712891 866.25293,93.4101562 869.475586,93.4101562 C876.56543,93.4101562 882.634766,94.940918 887.683594,98.0024414 C892.732422,101.063965 896.599609,105.226562 899.285156,110.490234 C901.970703,115.753906 903.313477,121.823242 903.313477,128.698242 C903.313477,135.358398 901.970703,141.374023 899.285156,146.745117 C896.599609,152.116211 892.732422,156.33252 887.683594,159.394043 C882.634766,162.455566 876.56543,163.986328 869.475586,163.986328 Z M963.09375,86.9648438 C966.960938,86.9648438 970.291016,85.5683594 973.083984,82.7753906 C975.876953,79.9824219 977.273438,76.7597656 977.273438,73.1074219 C977.273438,69.3476562 975.876953,66.0981445 973.083984,63.3588867 C970.291016,60.6196289 966.960938,59.25 963.09375,59.25 C959.226562,59.25 955.92334,60.6196289 953.184082,63.3588867 C950.444824,66.0981445 949.075195,69.3476562 949.075195,73.1074219 C949.075195,76.7597656 950.444824,79.9824219 953.184082,82.7753906 C955.92334,85.5683594 959.226562,86.9648438 963.09375,86.9648438 Z M975.017578,183 L975.017578,101.62793 L941.501953,101.62793 L941.501953,119.030273 L954.553711,119.030273 L954.553711,183 L975.017578,183 Z M1038.82617,185.416992 C1044.94922,185.416992 1050.56201,184.262207 1055.66455,181.952637 C1060.76709,179.643066 1064.60742,177.360352 1067.18555,175.104492 L1067.18555,175.104492 L1067.34668,156.09082 C1064.44629,158.561523 1060.5791,160.978516 1055.74512,163.341797 C1050.91113,165.705078 1045.54004,166.886719 1039.63184,166.886719 C1033.40137,166.886719 1028.1377,165.22168 1023.84082,161.891602 C1019.54395,158.561523 1016.8584,154.157227 1015.78418,148.678711 L1015.78418,148.678711 L1074.75879,148.678711 L1074.75879,139.977539 C1074.75879,132.02832 1073.22803,125.019043 1070.1665,118.949707 C1067.10498,112.880371 1062.70068,108.126953 1056.95361,104.689453 C1051.20654,101.251953 1044.3584,99.5332031 1036.40918,99.5332031 C1028.45996,99.5332031 1021.37012,101.547363 1015.13965,105.575684 C1008.90918,109.604004 1004.02148,114.894531 1000.47656,121.447266 C996.931641,128 995.15918,135.250977 995.15918,143.200195 C995.15918,151.364258 997.119629,158.615234 1001.04053,164.953125 C1004.96143,171.291016 1010.2251,176.286133 1016.83154,179.938477 C1023.43799,183.59082 1030.76953,185.416992 1038.82617,185.416992 Z M1055.10059,134.660156 L1016.10645,134.660156 C1017.39551,129.396484 1019.75879,125.207031 1023.19629,122.091797 C1026.63379,118.976562 1030.87695,117.418945 1035.92578,117.418945 C1040.54492,117.418945 1044.78809,118.842285 1048.65527,121.688965 C1052.52246,124.535645 1054.6709,128.859375 1055.10059,134.660156 L1055.10059,134.660156 Z M1113.91406,183 L1113.91406,129.987305 C1116.0625,127.194336 1118.47949,124.750488 1121.16504,122.655762 C1123.85059,120.561035 1126.91211,119.513672 1130.34961,119.513672 C1134.86133,119.513672 1138.54053,120.856445 1141.38721,123.541992 C1144.23389,126.227539 1145.65723,130.30957 1145.65723,135.788086 L1145.65723,135.788086 L1145.81836,183 L1166.28223,183 L1166.28223,130.631836 C1168.53809,127.624023 1170.95508,125.019043 1173.5332,122.816895 C1176.11133,120.614746 1179.17285,119.513672 1182.71777,119.513672 C1187.33691,119.513672 1191.06982,120.856445 1193.9165,123.541992 C1196.76318,126.227539 1198.18652,130.30957 1198.18652,135.788086 L1198.18652,135.788086 L1198.34766,183 L1218.81152,183 L1218.81152,133.048828 C1218.81152,125.636719 1217.44189,119.459961 1214.70264,114.518555 C1211.96338,109.577148 1208.33789,105.844238 1203.82617,103.319824 C1199.31445,100.79541 1194.31934,99.5332031 1188.84082,99.5332031 C1183.14746,99.5332031 1178.15234,101.063965 1173.85547,104.125488 C1169.55859,107.187012 1165.79883,110.919922 1162.57617,115.324219 C1159.99805,110.060547 1156.39941,106.112793 1151.78027,103.480957 C1147.16113,100.849121 1142.00488,99.5332031 1136.31152,99.5332031 C1130.83301,99.5332031 1126.34814,100.822266 1122.85693,103.400391 C1119.36572,105.978516 1116.38477,108.825195 1113.91406,111.94043 L1113.91406,111.94043 L1113.91406,101.62793 L1093.4502,101.62793 L1093.4502,183 L1113.91406,183 Z" id="CarpeDiem" fill="#202020" fill-rule="nonzero"></path>
            <path d="M319.686523,298 L332.254883,255.241211 C333.661133,250.641602 334.686523,246.408203 335.331055,242.541016 C335.360352,243.126953 335.755859,244.870117 336.517578,247.770508 C337.279297,250.670898 337.967773,253.073242 338.583008,254.977539 L338.583008,254.977539 L351.546875,298 L358.929688,298 L376.112305,233.751953 L368.202148,233.751953 L358.094727,273.34668 C356.541992,279.323242 355.487305,284.391602 354.930664,288.551758 C353.963867,282.838867 352.777344,277.711914 351.371094,273.170898 L351.371094,273.170898 L339.286133,233.751953 L331.375977,233.751953 L319.862305,272.819336 C318.30957,277.946289 317.137695,283.19043 316.34668,288.551758 C315.702148,284.040039 314.676758,279.000977 313.270508,273.43457 L313.270508,273.43457 L303.119141,233.751953 L295.208984,233.751953 L312.303711,298 L319.686523,298 Z M405.423828,298.878906 C408.675781,298.878906 411.45166,298.637207 413.751465,298.153809 C416.05127,297.67041 418.490234,296.87207 421.068359,295.758789 L421.068359,295.758789 L421.068359,289.254883 C416,291.422852 410.873047,292.506836 405.6875,292.506836 C400.765625,292.506836 396.949707,291.041992 394.239746,288.112305 C391.529785,285.182617 390.101562,280.890625 389.955078,275.236328 L389.955078,275.236328 L423.133789,275.236328 L423.133789,270.62207 C423.133789,264.118164 421.375977,258.881348 417.860352,254.911621 C414.344727,250.941895 409.569336,248.957031 403.53418,248.957031 C397.088867,248.957031 391.95459,251.242188 388.131348,255.8125 C384.308105,260.382812 382.396484,266.549805 382.396484,274.313477 C382.396484,282.018555 384.45459,288.039062 388.570801,292.375 C392.687012,296.710938 398.304688,298.878906 405.423828,298.878906 Z M415.311523,269.303711 L390.130859,269.303711 C390.541016,264.850586 391.895996,261.364258 394.195801,258.844727 C396.495605,256.325195 399.579102,255.06543 403.446289,255.06543 C407.254883,255.06543 410.18457,256.288574 412.235352,258.734863 C414.286133,261.181152 415.311523,264.704102 415.311523,269.303711 L415.311523,269.303711 Z M470.638672,298.878906 C474.212891,298.878906 477.193848,298.344238 479.581543,297.274902 C481.969238,296.205566 484.364258,294.162109 486.766602,291.144531 L486.766602,291.144531 L487.118164,291.144531 L488.568359,298 L493.973633,298 L493.973633,265.128906 C493.973633,259.503906 492.589355,255.416992 489.820801,252.868164 C487.052246,250.319336 482.796875,249.044922 477.054688,249.044922 C474.212891,249.044922 471.378418,249.411133 468.55127,250.143555 C465.724121,250.875977 463.124023,251.886719 460.750977,253.175781 L460.750977,253.175781 L462.992188,258.756836 C468.060547,256.295898 472.601562,255.06543 476.615234,255.06543 C480.189453,255.06543 482.789551,255.966309 484.415527,257.768066 C486.041504,259.569824 486.854492,262.360352 486.854492,266.139648 L486.854492,266.139648 L486.854492,269.12793 L478.680664,269.391602 C463.124023,269.860352 455.345703,274.958008 455.345703,284.68457 C455.345703,289.225586 456.700684,292.726562 459.410645,295.1875 C462.120605,297.648438 465.863281,298.878906 470.638672,298.878906 Z M472.088867,292.858398 C469.217773,292.858398 466.983887,292.169922 465.387207,290.792969 C463.790527,289.416016 462.992188,287.40918 462.992188,284.772461 C462.992188,281.40332 464.273926,278.92041 466.837402,277.32373 C469.400879,275.727051 473.583008,274.826172 479.383789,274.621094 L479.383789,274.621094 L486.678711,274.313477 L486.678711,278.664062 C486.678711,283.146484 485.382324,286.632812 482.789551,289.123047 C480.196777,291.613281 476.629883,292.858398 472.088867,292.858398 Z M516.297852,298 L516.297852,272.160156 C516.297852,267.443359 517.682129,263.50293 520.450684,260.338867 C523.219238,257.174805 526.551758,255.592773 530.448242,255.592773 C531.97168,255.592773 533.729492,255.8125 535.72168,256.251953 L535.72168,256.251953 L536.732422,249.484375 C535.033203,249.132812 533.114258,248.957031 530.975586,248.957031 C527.958008,248.957031 525.189453,249.806641 522.669922,251.505859 C520.150391,253.205078 517.99707,255.62207 516.209961,258.756836 L516.209961,258.756836 L515.858398,258.756836 L515.023438,249.835938 L509.00293,249.835938 L509.00293,298 L516.297852,298 Z M566.087891,298.878906 C569.339844,298.878906 572.115723,298.637207 574.415527,298.153809 C576.715332,297.67041 579.154297,296.87207 581.732422,295.758789 L581.732422,295.758789 L581.732422,289.254883 C576.664062,291.422852 571.537109,292.506836 566.351562,292.506836 C561.429688,292.506836 557.61377,291.041992 554.903809,288.112305 C552.193848,285.182617 550.765625,280.890625 550.619141,275.236328 L550.619141,275.236328 L583.797852,275.236328 L583.797852,270.62207 C583.797852,264.118164 582.040039,258.881348 578.524414,254.911621 C575.008789,250.941895 570.233398,248.957031 564.198242,248.957031 C557.75293,248.957031 552.618652,251.242188 548.79541,255.8125 C544.972168,260.382812 543.060547,266.549805 543.060547,274.313477 C543.060547,282.018555 545.118652,288.039062 549.234863,292.375 C553.351074,296.710938 558.96875,298.878906 566.087891,298.878906 Z M575.975586,269.303711 L550.794922,269.303711 C551.205078,264.850586 552.560059,261.364258 554.859863,258.844727 C557.159668,256.325195 560.243164,255.06543 564.110352,255.06543 C567.918945,255.06543 570.848633,256.288574 572.899414,258.734863 C574.950195,261.181152 575.975586,264.704102 575.975586,269.303711 L575.975586,269.303711 Z M628.182617,298 L628.182617,270.53418 L654.813477,270.53418 L654.813477,263.898438 L628.182617,263.898438 L628.182617,240.387695 L656.527344,240.387695 L656.527344,233.751953 L620.711914,233.751953 L620.711914,298 L628.182617,298 Z M677.75293,298.878906 C681.327148,298.878906 684.308105,298.344238 686.695801,297.274902 C689.083496,296.205566 691.478516,294.162109 693.880859,291.144531 L693.880859,291.144531 L694.232422,291.144531 L695.682617,298 L701.087891,298 L701.087891,265.128906 C701.087891,259.503906 699.703613,255.416992 696.935059,252.868164 C694.166504,250.319336 689.911133,249.044922 684.168945,249.044922 C681.327148,249.044922 678.492676,249.411133 675.665527,250.143555 C672.838379,250.875977 670.238281,251.886719 667.865234,253.175781 L667.865234,253.175781 L670.106445,258.756836 C675.174805,256.295898 679.71582,255.06543 683.729492,255.06543 C687.303711,255.06543 689.903809,255.966309 691.529785,257.768066 C693.155762,259.569824 693.96875,262.360352 693.96875,266.139648 L693.96875,266.139648 L693.96875,269.12793 L685.794922,269.391602 C670.238281,269.860352 662.459961,274.958008 662.459961,284.68457 C662.459961,289.225586 663.814941,292.726562 666.524902,295.1875 C669.234863,297.648438 672.977539,298.878906 677.75293,298.878906 Z M679.203125,292.858398 C676.332031,292.858398 674.098145,292.169922 672.501465,290.792969 C670.904785,289.416016 670.106445,287.40918 670.106445,284.772461 C670.106445,281.40332 671.388184,278.92041 673.95166,277.32373 C676.515137,275.727051 680.697266,274.826172 686.498047,274.621094 L686.498047,274.621094 L693.792969,274.313477 L693.792969,278.664062 C693.792969,283.146484 692.496582,286.632812 689.903809,289.123047 C687.311035,291.613281 683.744141,292.858398 679.203125,292.858398 Z M723.412109,298 L723.412109,272.731445 C723.412109,266.491211 724.474121,262.001465 726.598145,259.262207 C728.722168,256.522949 732.069336,255.15332 736.639648,255.15332 C740.125977,255.15332 742.689453,256.112793 744.330078,258.031738 C745.970703,259.950684 746.791016,262.829102 746.791016,266.666992 L746.791016,266.666992 L746.791016,298 L754.085938,298 L754.085938,271.105469 C754.085938,265.685547 755.169922,261.671875 757.337891,259.064453 C759.505859,256.457031 762.860352,255.15332 767.401367,255.15332 C770.858398,255.15332 773.407227,256.112793 775.047852,258.031738 C776.688477,259.950684 777.508789,262.829102 777.508789,266.666992 L777.508789,266.666992 L777.508789,298 L784.803711,298 L784.803711,266.579102 C784.803711,260.426758 783.44873,255.95166 780.73877,253.153809 C778.028809,250.355957 773.949219,248.957031 768.5,248.957031 C765.013672,248.957031 761.908203,249.689453 759.183594,251.154297 C756.458984,252.619141 754.378906,254.611328 752.943359,257.130859 L752.943359,257.130859 L752.591797,257.130859 C750.277344,251.681641 745.355469,248.957031 737.826172,248.957031 C734.720703,248.957031 731.915527,249.616211 729.410645,250.93457 C726.905762,252.25293 724.964844,254.083984 723.587891,256.427734 L723.587891,256.427734 L723.236328,256.427734 L722.049805,249.835938 L716.117188,249.835938 L716.117188,298 L723.412109,298 Z M803.524414,241.662109 C804.696289,241.662109 805.707031,241.259277 806.556641,240.453613 C807.40625,239.647949 807.831055,238.424805 807.831055,236.78418 C807.831055,235.143555 807.40625,233.927734 806.556641,233.136719 C805.707031,232.345703 804.696289,231.950195 803.524414,231.950195 C802.293945,231.950195 801.268555,232.338379 800.448242,233.114746 C799.62793,233.891113 799.217773,235.114258 799.217773,236.78418 C799.217773,238.424805 799.62793,239.647949 800.448242,240.453613 C801.268555,241.259277 802.293945,241.662109 803.524414,241.662109 Z M807.12793,298 L807.12793,249.835938 L799.833008,249.835938 L799.833008,298 L807.12793,298 Z M829.891602,298 L829.891602,229.621094 L822.59668,229.621094 L822.59668,298 L829.891602,298 Z M844.920898,319.621094 C848.905273,319.621094 852.26709,318.48584 855.006348,316.215332 C857.745605,313.944824 860.140625,310.099609 862.191406,304.679688 L862.191406,304.679688 L882.889648,249.835938 L875.067383,249.835938 C868.329102,268.46875 864.352051,279.594238 863.13623,283.212402 C861.92041,286.830566 861.12207,289.386719 860.741211,290.880859 L860.741211,290.880859 L860.389648,290.880859 C859.833008,288.097656 858.397461,283.571289 856.083008,277.301758 L856.083008,277.301758 L845.536133,249.835938 L837.713867,249.835938 L857.137695,298.263672 L854.457031,305.119141 C852.318359,310.744141 848.744141,313.556641 843.734375,313.556641 C841.742188,313.556641 839.94043,313.380859 838.329102,313.029297 L838.329102,313.029297 L838.329102,318.874023 C840.49707,319.37207 842.694336,319.621094 844.920898,319.621094 Z" id="WeareFamily" fill="#39D2DC" fill-rule="nonzero"></path>
        </g>
    </g>
</svg>